<svg xmlns="http://www.w3.org/2000/svg" viewBox="0 0 42.413 44.114" role="img" aria-label="SEED icon">
  <g transform="translate(21.206 22.907) scale(1 -1)" stroke-linecap="round" stroke-linejoin="round">
    <path
      d="M 0 -10.77191 C -10.77191 -4.53558 -13.89008 -13.60632 -5.1022 -18.42523 C 1.70073 -22.11046 11.9056 -15.59082 10.48817 -8.22037 C 9.35448 -2.26778 3.96852 -4.8189 0 -10.77191 Z"
      fill="#b97932"
    />
    <path
      d="M 0 -10.77191 C -10.77191 -4.53558 -13.89008 -13.60632 -5.1022 -18.42523 C 1.70073 -22.11046 11.9056 -15.59082 10.48817 -8.22037 C 9.35448 -2.26778 3.96852 -4.8189 0 -10.77191 Z"
      fill="none"
      stroke="#7a4a24"
      stroke-width="1.84259"
    />
    <path
      d="M 0.56705 -11.9056 C -0.56705 -2.26778 1.13367 5.95302 2.83484 15.30708"
      fill="none"
      stroke="#235c3a"
      stroke-width="2.69296"
    />
    <path
      d="M 2.26778 8.50412 C -1.4174 17.00824 -9.6378 19.84267 -15.59082 15.59082 C -12.75595 8.22037 -4.25183 5.38594 2.26778 8.50412 Z"
      fill="#70b85d"
    />
    <path
      d="M 2.26778 8.50412 C -1.4174 17.00824 -9.6378 19.84267 -15.59082 15.59082 C -12.75595 8.22037 -4.25183 5.38594 2.26778 8.50412 Z"
      fill="none"
      stroke="#235c3a"
      stroke-width="1.55885"
    />
    <path
      d="M 2.5511 13.32303 C 7.08669 20.40973 15.30708 20.40973 18.14192 14.45671 C 12.75595 8.50412 6.51964 8.50412 2.5511 13.32303 Z"
      fill="#3b8b4b"
    />
    <path
      d="M 2.5511 13.32303 C 7.08669 20.40973 15.30708 20.40973 18.14192 14.45671 C 12.75595 8.50412 6.51964 8.50412 2.5511 13.32303 Z"
      fill="none"
      stroke="#235c3a"
      stroke-width="1.55885"
    />
  </g>
</svg>
